<?xml version="1.0" standalone="no"?>
<!DOCTYPE svg PUBLIC "-//W3C//DTD SVG 20010904//EN"
 "http://www.w3.org/TR/2001/REC-SVG-20010904/DTD/svg10.dtd">
<svg version="1.0" xmlns="http://www.w3.org/2000/svg"
 width="700.000000pt" height="700.000000pt" viewBox="0 0 700.000000 700.000000"
 preserveAspectRatio="xMidYMid meet">
<metadata>
Created by potrace 1.11, written by Peter Selinger 2001-2013
</metadata>
<g transform="translate(0.000000,700.000000) scale(0.100000,-0.100000)"
fill="#000000" stroke="none">
<path d="M709 6986 c-62 -22 -116 -73 -140 -132 -9 -22 -13 -369 -14 -1384
l-2 -1355 -35 -90 c-73 -184 -129 -396 -164 -625 -14 -88 -18 -177 -19 -380 0
-146 4 -294 8 -330 22 -178 58 -355 104 -508 13 -46 23 -85 21 -86 -1 -1 -34
-8 -73 -15 -121 -23 -221 -48 -243 -62 -54 -34 -63 -118 -18 -168 39 -43 56
-44 244 -5 113 23 178 32 180 25 12 -36 149 -300 190 -366 28 -44 48 -83 46
-87 -2 -4 -29 -16 -58 -27 -68 -25 -121 -49 -263 -118 -86 -41 -117 -61 -128
-83 -29 -57 -14 -119 37 -150 47 -29 78 -25 166 19 42 21 122 57 177 81 132
56 134 57 177 74 l37 15 57 -72 c75 -94 328 -347 425 -424 212 -170 395 -286
624 -398 499 -243 988 -347 1550 -332 116 4 224 8 240 11 17 3 50 7 75 10 265
28 666 137 899 243 257 117 523 272 670 389 202 161 379 329 510 486 l73 88
28 -15 c16 -8 34 -15 40 -15 13 0 14 0 210 -90 188 -86 211 -94 244 -86 44 11
86 61 86 103 0 63 -26 90 -135 143 -141 68 -222 104 -282 125 -29 11 -53 22
-53 26 0 3 11 23 25 43 14 20 25 38 25 40 0 2 22 41 48 87 45 78 121 231 135
271 7 19 6 19 152 -9 89 -17 91 -17 159 -32 57 -13 81 -8 118 26 47 44 46 116
-3 161 -21 20 -181 65 -280 78 -24 4 -46 8 -48 10 -2 2 10 52 27 111 29 101
48 177 58 231 2 12 6 34 9 50 3 15 8 45 11 67 2 22 7 49 9 60 13 65 20 197 20
390 0 253 -3 287 -49 560 -19 112 -73 296 -132 450 l-38 100 -1 1355 c-1 1493
3 1388 -63 1457 -49 50 -88 66 -167 67 -76 1 -88 -4 -180 -78 -27 -23 -52 -43
-55 -46 -3 -3 -39 -32 -80 -65 -41 -33 -84 -67 -95 -76 -90 -75 -240 -199
-400 -329 -104 -85 -201 -164 -215 -176 -14 -12 -128 -107 -255 -209 -126
-103 -238 -195 -248 -203 -16 -14 -23 -14 -75 2 -31 9 -66 21 -77 26 -19 9
-185 56 -234 66 -12 3 -53 12 -90 20 -36 9 -77 18 -91 20 -14 2 -36 7 -50 9
-14 3 -45 7 -70 10 -25 3 -72 10 -105 15 -69 11 -283 23 -400 23 -143 0 -305
-12 -500 -37 -145 -19 -356 -69 -533 -127 -68 -22 -129 -38 -135 -36 -7 3 -59
44 -117 92 -58 48 -114 94 -125 103 -76 63 -133 109 -150 124 -11 9 -126 103
-255 208 -129 106 -246 202 -260 214 -14 11 -73 59 -130 106 -58 46 -110 89
-116 95 -7 5 -29 24 -50 41 -22 18 -83 68 -138 112 -123 100 -187 120 -277 88z"/>
</g>
</svg>
